# xmcd
#
# Track frame offsets: 
#        150
#        6752
#        23500
#        35785
#        54035
#        73635
#        91690
#        101897
#        120832
#        129157
#        149677
#        169765
#        189647
#        211400
#        230872
#        244585
#        264197
#        283297
#        298702
#
# Disc length: 4263 seconds
#
# Revision: 18
# Processed by: cddbd v1.5.2PL0 Copyright (c) Steve Scherf et al.
# Submitted via: ExactAudioCopy v0.90b4
#
DISCID=0e10a513
DTITLE=Method Man and Redman - Blackout! (Disc1)
DYEAR=2003
DGENRE=Rap and Hip Hop
TTITLE0=A Special Joint [Intro]
TTITLE1=Blackout!
TTITLE2=Mi Casa
TTITLE3=Y.O.U.
TTITLE4=4 Seasons (Feat. Ja Rule and LL Cool J)
TTITLE5=Cereal Killer (Feat. Blue Raspberry)
TTITLE6=Da Rockwilder
TTITLE7=Tear It Off
TTITLE8=Where We At [Skit]
TTITLE9=1, 2, 1, 2
TTITLE10=Maaad Crew
TTITLE11=Run 4 Cover (Feat. Ghostface Killah and Street Life)
TTITLE12=The ?
TTITLE13=Dat's Dat Shit (Feat. Mally G)
TTITLE14=Cheka
TTITLE15=Fire Ina Hole
TTITLE16=Well All Rite Cha
TTITLE17=Big Dogs
TTITLE18=How High [Remix]
EXTD=YEAR: 1999
EXTT0=
EXTT1=
EXTT2=
EXTT3=
EXTT4=
EXTT5=
EXTT6=
EXTT7=
EXTT8=
EXTT9=
EXTT10=
EXTT11=
EXTT12=
EXTT13=
EXTT14=
EXTT15=
EXTT16=
EXTT17=
EXTT18=
PLAYORDER=
